:SAMPLES-PER-SECOND 30
:FRAME-RANGE 1-2045
:FULLY-SPECIFIED
:DEGREES
1726
root  -17.0538 38.1982 35.9208 -26.9557 -80.4114 25.1926
RightUpLeg  -11.0591 7.60207 -5.23664
RightLeg  35.0892 -8.90961 -6.9297
RightFoot  -19.2204 0.207662 4.90515
RightToes  5.82063e-011 0 -3.6325e-017
Spine  8.06165 -1.68395 5.57555
Spine1  4.06413 -2.64128 5.71199
HEad  -6.73637 -61.7422 9.74116
LeftShoulder1  1.0938 -0.222755 -23.051
LeftArm  -10.4911 19.5715 -23.1143
LeftForeArm  53.1274 -78.5249 -83.511
LeftHand  -0.853292 11.033 -15.4999
RightShoulder  6.35156 8.98363 44.4605
RightArm  8.98569 -0.0992025 15.7584
RightForeArm  -7.00586 71.5549 39.6798
RightHand  -0.209995 -6.37707 18.0545
LeftUpLeg  -16.5507 11.8408 8.04192
LeftLeg  19.153 -4.41927 -1.38561
LeftFoot  1.62582 1.63964 -14.4526
LeftToes  -3.90176e-010 -2.48536e-010 1.05482e-011
1727
root  -17.4151 37.9755 37.1532 -66.9348 -85.3397 65.4702
RightUpLeg  -12.5207 13.1945 -7.17481
RightLeg  36.4357 -7.62037 -6.26446
RightFoot  -19.9602 0.318227 6.01522
RightToes  5.82063e-011 0 -3.6325e-017
Spine  9.1014 -1.28134 5.06705
Spine1  4.2881 -2.04103 4.67382
HEad  -8.62729 -60.7663 11.3675
LeftShoulder1  1.10237 -0.270012 -22.9033
LeftArm  -10.6782 18.9317 -22.7533
LeftForeArm  52.5722 -78.5105 -83.06
LeftHand  -0.8278 11.061 -14.9324
RightShoulder  6.86417 10.0718 44.1774
RightArm  8.69336 0.280576 16.0294
RightForeArm  -7.76618 71.0828 38.3795
RightHand  -0.100984 -5.73326 17.4321
LeftUpLeg  -14.2891 6.51588 10.1767
LeftLeg  12.59 -9.81138 -2.08516
LeftFoot  3.25381 2.18054 -17.0752
LeftToes  -3.90176e-010 -2.48536e-010 1.05482e-011
1728
root  -17.6508 37.7094 38.4144 -142.02 -82.659 140.981
RightUpLeg  -15.2697 18.0186 -10.1365
RightLeg  37.6958 -5.01157 -4.4101
RightFoot  -20.4368 0.441104 7.28145
RightToes  5.82063e-011 0 -3.6325e-017
Spine  10.7859 -0.788569 3.74195
Spine1  4.11849 -1.24763 3.12751
HEad  -10.612 -59.6833 13.0502
LeftShoulder1  1.16494 -0.460303 -23.0914
LeftArm  -10.9592 17.7207 -22.0302
LeftForeArm  48.52 -78.3836 -79.4138
LeftHand  -0.842181 11.1835 -14.8829
RightShoulder  7.71223 11.7001 44.3144
RightArm  8.20822 1.45049 15.6669
RightForeArm  -10.2781 70.2774 36.5136
RightHand  -0.0940655 -5.70328 16.8698
LeftUpLeg  -14.0195 8.79767 10.4474
LeftLeg  15.4024 -10.3198 -2.89392
LeftFoot  -0.852497 1.88609 -20.3067
LeftToes  -3.90176e-010 -2.48536e-010 1.05482e-011
1729
root  -17.7277 37.5582 39.6238 -156.879 -75.6003 156.097
RightUpLeg  -19.0231 21.6959 -14.3472
RightLeg  38.8305 -2.41545 -2.35488
RightFoot  -19.3507 0.523622 9.33946
RightToes  5.82063e-011 0 -3.6325e-017
Spine  12.9955 -0.238096 -0.277576
Spine1  3.90652 -1.08712 3.24995
HEad  -14.3542 -57.4656 16.5031
LeftShoulder1  1.24115 -0.596124 -24.0243
LeftArm  -11.3885 15.0951 -21.6014
LeftForeArm  35.2187 -77.5074 -65.6809
LeftHand  -0.754552 10.7771 -14.2471
RightShoulder  8.75619 13.4621 45.1075
RightArm  7.78629 4.27007 15.6554
RightForeArm  -14.7879 68.0795 32.1168
RightHand  -0.108232 -5.78004 17.3823
LeftUpLeg  -15.0364 16.9344 8.02244
LeftLeg  21.0455 -10.5248 -4.11275
LeftFoot  -3.30459 1.22813 -17.0941
LeftToes  -3.90176e-010 -2.48536e-010 1.05482e-011
1730
root  -17.7425 37.649 40.8855 -163.241 -68.7993 163.858
RightUpLeg  -23.0442 21.5993 -17.111
RightLeg  37.0631 -1.76485 -1.69234
RightFoot  -16.0752 0.360198 11.3274
RightToes  5.82063e-011 0 -3.6325e-017
Spine  14.046 -0.0631593 -1.73796
Spine1  3.71415 -0.939797 2.87914
HEad  -15.1861 -54.4271 16.6501
LeftShoulder1  1.38941 -1.03064 -24.4158
LeftArm  -10.6533 10.6677 -21.8055
LeftForeArm  13.3643 -73.6273 -43.5015
LeftHand  -0.597655 9.62657 -14.1286
RightShoulder  9.83054 15.2141 45.9137
RightArm  6.96614 7.22662 16.2252
RightForeArm  -20.3464 64.128 26.3222
RightHand  -0.0955553 -5.67619 18.4694
LeftUpLeg  -16.3676 22.1487 6.21503
LeftLeg  23.3046 -8.19311 -3.51734
LeftFoot  -4.24389 0.941788 -14.711
LeftToes  -3.90176e-010 -2.48536e-010 1.05482e-011
1731
root  -17.8554 37.977 42.2291 -168.421 -62.3523 170.435
RightUpLeg  -24.476 17.0734 -16.6511
RightLeg  31.6265 -2.51888 -1.91173
RightFoot  -11.2907 -0.0818304 11.057
RightToes  5.82063e-011 0 -3.6325e-017
Spine  14.5074 -0.455903 -0.612185
Spine1  4.27581 -0.845753 1.42325
HEad  -15.7739 -50.8119 15.6165
LeftShoulder1  1.56876 -1.5249 -25.0012
LeftArm  -9.05202 5.12679 -21.5458
LeftForeArm  -0.220305 -67.816 -29.9156
LeftHand  -0.47521 8.56974 -14.6689
RightShoulder  10.6875 16.9844 45.5685
RightArm  5.86302 9.39191 17.003
RightForeArm  -23.3423 60.6193 22.5534
RightHand  -0.0105108 -5.17032 18.0473
LeftUpLeg  -16.6075 26.3459 5.54286
LeftLeg  23.2372 -5.58047 -2.28406
LeftFoot  -4.7871 0.809864 -13.593
LeftToes  -3.90176e-010 -2.48536e-010 1.05482e-011
1732
root  -18.0425 38.3874 43.4778 -171.313 -56.1758 175.116
RightUpLeg  -25.3256 10.378 -14.1148
RightLeg  25.6734 -3.85542 -2.24086
RightFoot  -5.9201 -0.417043 7.94348
RightToes  5.82063e-011 0 -3.6325e-017
Spine  14.5125 -0.412264 0.116858
Spine1  4.57441 -0.825293 1.83983
HEad  -15.5163 -47.5146 14.9421
LeftShoulder1  1.73513 -2.05256 -25.0393
LeftArm  -6.24887 -0.57746 -21.4742
LeftForeArm  -7.28066 -62.9414 -23.6886
LeftHand  -0.472475 8.47044 -15.0434
RightShoulder  11.1518 18.3275 44.561
RightArm  5.25169 10.6948 17.0339
RightForeArm  -26.2605 57.9982 20.3711
RightHand  -0.0656244 -5.5035 18.0952
LeftUpLeg  -16.7623 28.0386 5.21152
LeftLeg  22.0146 -1.59068 -0.373382
LeftFoot  -4.80484 0.832381 -14.0172
LeftToes  -3.90176e-010 -2.48536e-010 1.05482e-011
1733
root  -18.1748 38.6569 44.443 -172.871 -50.0269 178.252
RightUpLeg  -25.7021 2.94247 -10.4259
RightLeg  20.8244 -5.26009 -2.42001
RightFoot  -4.4685 -0.562226 8.83772
RightToes  5.82063e-011 0 -3.6325e-017
Spine  14.6079 -0.0606948 -0.389082
Spine1  4.28765 -0.481485 1.77097
HEad  -14.6826 -44.3211 14.9887
LeftShoulder1  1.81602 -2.43596 -24.3584
LeftArm  -3.522 -5.8859 -21.9828
LeftForeArm  -10.7941 -59.4238 -20.4659
LeftHand  -0.481201 8.79857 -13.8752
RightShoulder  11.1595 18.8778 43.427
RightArm  5.75661 11.7142 17.116
RightForeArm  -30.1287 55.4974 18.6707
RightHand  -0.109416 -5.77492 17.833
LeftUpLeg  -16.8157 29.4556 5.49724
LeftLeg  21.4021 1.41911 0.94759
LeftFoot  -5.05221 0.845381 -14.7712
LeftToes  -3.90176e-010 -2.48536e-010 1.05482e-011
1734
root  -18.2774 38.8564 45.2261 -173.591 -45.205 -179.647
RightUpLeg  -26.1321 -9.08067 -4.87202
RightLeg  17.919 -7.17203 -2.77816
RightFoot  -6.02999 -0.602028 12.0495
RightToes  5.82063e-011 0 -3.6325e-017
Spine  14.5043 -0.0957638 -1.12686
Spine1  3.82985 -0.482638 1.47142
HEad  -13.8145 -41.2849 15.1453
LeftShoulder1  1.86447 -2.73181 -23.6531
LeftArm  -0.725848 -11.1413 -22.7301
LeftForeArm  -13.4895 -57.0378 -18.7284
LeftHand  -0.510837 8.83526 -14.6564
RightShoulder  10.9651 19.0764 42.2157
RightArm  6.20806 11.9311 17.2533
RightForeArm  -33.4261 53.3513 17.3942
RightHand  -0.109057 -5.76058 18.2924
LeftUpLeg  -16.542 29.6704 6.17281
LeftLeg  20.5345 1.50339 0.957336
LeftFoot  -5.37198 0.779299 -14.2707
LeftToes  -3.90176e-010 -2.48536e-010 1.05482e-011
1735
root  -18.351 39.0293 45.9294 -174.078 -41.6699 -178.191
RightUpLeg  -27.1481 -17.1383 -0.917827
RightLeg  17.8448 -8.68807 -3.19893
RightFoot  -5.94256 -0.593828 11.6958
RightToes  5.82063e-011 0 -3.6325e-017
Spine  14.6833 -0.223901 -1.93262
Spine1  3.27969 -0.860734 2.04696
HEad  -13.2357 -38.4635 15.2767
LeftShoulder1  1.92359 -3.01026 -23.2648
LeftArm  1.92643 -17.4697 -24.584
LeftForeArm  -16.2369 -52.6326 -15.9789
LeftHand  -0.470868 8.50473 -14.8235
RightShoulder  10.6144 18.8516 41.2064
RightArm  6.35927 11.7571 17.0844
RightForeArm  -35.7023 51.521 16.3915
RightHand  -0.0828174 -5.59544 18.7905
LeftUpLeg  -15.7571 27.9376 7.2871
LeftLeg  19.4502 0.176481 0.401401
LeftFoot  -5.87634 0.742781 -14.7605
LeftToes  -3.90176e-010 -2.48536e-010 1.05482e-011
1736
root  -18.4258 39.145 46.5288 -173.852 -38.9514 -177.882
RightUpLeg  -28.0986 -20.1272 -0.04844
RightLeg  19.9848 -11.0532 -4.62714
RightFoot  -5.97782 -0.482553 9.41111
RightToes  5.82063e-011 0 -3.6325e-017
Spine  14.746 -0.631909 -2.972
Spine1  2.78524 -1.4751 2.21215
HEad  -12.8669 -36.026 15.5128
LeftShoulder1  1.99941 -3.32385 -23.0075
LeftArm  5.17063 -23.145 -26.5868
LeftForeArm  -18.741 -48.9814 -14.1618
LeftHand  -0.456054 8.43314 -14.6467
RightShoulder  10.2466 18.3613 40.6326
RightArm  6.28619 11.4718 16.8728
RightForeArm  -37.9694 49.8423 15.5553
RightHand  -0.0584632 -5.4512 19.076
LeftUpLeg  -15.2955 26.3908 7.47755
LeftLeg  18.6618 -0.877705 -0.00758538
LeftFoot  -6.03024 0.724594 -14.7786
LeftToes  -3.90176e-010 -2.48536e-010 1.05482e-011
1737
root  -18.4552 39.178 46.9756 -173.562 -36.2045 -177.886
RightUpLeg  -28.4943 -19.3813 -0.954862
RightLeg  22.9537 -13.1023 -6.22252
RightFoot  -6.23501 -0.407118 8.16321
RightToes  5.82063e-011 0 -3.6325e-017
Spine  14.7901 -0.949112 -4.17245
Spine1  2.24526 -1.92586 2.16844
HEad  -12.9176 -33.692 15.5996
LeftShoulder1  2.08141 -3.61613 -22.9562
LeftArm  9.05252 -27.508 -28.1879
LeftForeArm  -21.2551 -46.9312 -13.3321
LeftHand  -0.445899 8.55334 -13.7466
RightShoulder  9.91758 17.8339 40.2785
RightArm  6.00304 10.938 16.4768
RightForeArm  -39.3218 48.4384 14.8845
RightHand  -0.0251474 -5.26053 19.4054
LeftUpLeg  -15.2052 27.2928 7.2142
LeftLeg  18.5684 -1.58537 -0.292363
LeftFoot  -6.25279 0.682859 -14.4641
LeftToes  -3.90176e-010 -2.48536e-010 1.05482e-011
1738
root  -18.4688 39.1726 47.3392 -173.454 -33.8923 -178.022
RightUpLeg  -28.1014 -17.6435 -2.69618
RightLeg  24.975 -11.4939 -5.99857
RightFoot  -6.70433 -0.325097 6.89305
RightToes  5.82063e-011 0 -3.6325e-017
Spine  15.0568 -1.40192 -4.88209
Spine1  1.80179 -2.40596 1.86341
HEad  -13.0712 -31.3298 15.3639
LeftShoulder1  2.13606 -3.79251 -23.002
LeftArm  13.1351 -32.0592 -31.0063
LeftForeArm  -23.2318 -42.4001 -11.554
LeftHand  -0.361736 7.77211 -14.4294
RightShoulder  9.47184 17.1735 39.6513
RightArm  5.78683 10.1934 16.0743
RightForeArm  -39.9359 47.8326 14.609
RightHand  0.00142488 -5.11279 19.6506
LeftUpLeg  -15.2057 28.037 6.68701
LeftLeg  18.694 -0.382235 0.133163
LeftFoot  -6.46525 0.642429 -14.1232
LeftToes  -3.90176e-010 -2.48536e-010 1.05482e-011
1739
root  -18.4246 39.1437 47.6094 -173.392 -31.6776 -178.074
RightUpLeg  -27.1002 -15.1858 -4.47145
RightLeg  25.0813 -8.16157 -4.36513
RightFoot  -6.66774 -0.33264 7.02934
RightToes  5.82063e-011 0 -3.6325e-017
Spine  15.4308 -1.74865 -5.55965
Spine1  1.20361 -2.85616 1.95911
HEad  -13.2403 -29.0988 14.7802
LeftShoulder1  2.2049 -3.98143 -23.1939
LeftArm  16.9477 -34.7163 -33.4021
LeftForeArm  -24.9896 -40.1026 -10.7984
LeftHand  -0.307651 7.40606 -14.1512
RightShoulder  8.96519 16.4871 38.7425
RightArm  5.94722 9.349 15.7949
RightForeArm  -40.4246 47.5492 14.4895
RightHand  -0.00696514 -5.16066 19.8362
LeftUpLeg  -15.263 28.6348 6.38777
LeftLeg  18.9785 1.05599 0.65586
LeftFoot  -6.68864 0.604061 -13.8314
LeftToes  -3.90176e-010 -2.48536e-010 1.05482e-011
1740
root  -18.3106 39.1498 47.7917 -172.953 -29.5216 -178.301
RightUpLeg  -26.1512 -14.2265 -5.59114
RightLeg  23.7774 -8.01517 -4.06316
RightFoot  -6.36459 -0.328891 6.56294
RightToes  5.82063e-011 0 -3.6325e-017
Spine  15.4349 -2.03718 -6.39815
Spine1  0.852957 -3.32014 2.32251
HEad  -13.4164 -26.7275 14.287
LeftShoulder1  2.24105 -4.13993 -23.0494
LeftArm  19.288 -35.9085 -35.8324
LeftForeArm  -25.2661 -38.7003 -10.3297
LeftHand  -0.266688 7.05089 -14.493
RightShoulder  8.52408 15.7937 38.1041
RightArm  6.36275 8.68 15.3
RightForeArm  -40.7834 47.5491 14.5016
RightHand  -0.00172585 -5.13392 20.1323
LeftUpLeg  -15.2468 28.7912 6.17444
LeftLeg  18.6717 2.49356 1.02944
LeftFoot  -6.56205 0.636136 -14.2445
LeftToes  -3.90176e-010 -2.48536e-010 1.05482e-011
